<svg width="20" height="31" viewBox="0 0 20 31" fill="none" xmlns="http://www.w3.org/2000/svg">
<g clip-path="url(#clip0_2_1610)">
<g clip-path="url(#clip1_2_1610)">
<path d="M10.3521 5.5C7.84039 5.5 5.8042 7.53766 5.8042 10.0512C5.8042 12.5648 7.84039 14.6025 10.3521 14.6025C12.8639 14.6025 14.9001 12.5648 14.9001 10.0512C14.9001 7.53766 12.8639 5.5 10.3521 5.5Z" fill="white"/>
<path d="M5.50107 17.0298C2.98931 17.0298 0.953125 19.0674 0.953125 21.581V23.0232C0.953125 23.9374 1.61517 24.7168 2.51674 24.8641C7.70604 25.712 12.9984 25.712 18.1877 24.8641C19.0893 24.7168 19.7513 23.9374 19.7513 23.0232V21.581C19.7513 19.0674 17.7151 17.0298 15.2034 17.0298H14.79C14.5662 17.0298 14.3439 17.0652 14.1312 17.1347L13.0815 17.4777C11.308 18.0572 9.39639 18.0572 7.62295 17.4777L6.57326 17.1347C6.36057 17.0652 6.13822 17.0298 5.91447 17.0298H5.50107Z" fill="white"/>
</g>
</g>
<defs>
<clipPath id="clip0_2_1610">
<rect width="20" height="30" fill="white" transform="translate(0 0.5)"/>
</clipPath>
<clipPath id="clip1_2_1610">
<rect width="20" height="20" fill="white" transform="translate(0 5.5)"/>
</clipPath>
</defs>
</svg>
