<svg width="21" height="31" viewBox="0 0 21 31" fill="none" xmlns="http://www.w3.org/2000/svg">
<g clip-path="url(#clip0_2_1604)">
<g clip-path="url(#clip1_2_1604)">
<path d="M1.61358 13.472C3.93943 18.5444 8.07802 22.5772 13.2234 24.7634L14.0482 25.1314C15.9352 25.9732 18.1535 25.3336 19.3044 23.6159L20.3822 22.0072C20.7327 21.4842 20.626 20.7798 20.1364 20.3844L16.4811 17.4316C15.9442 16.9978 15.1547 17.0989 14.744 17.6538L13.6131 19.1817C10.7115 17.7485 8.35575 15.3896 6.92443 12.4842L8.4503 11.3519C9.00453 10.9407 9.10542 10.1501 8.67228 9.61253L5.72325 5.95227C5.32839 5.46218 4.62507 5.35528 4.10275 5.70596L2.48514 6.79203C0.758898 7.95102 0.123692 10.1905 0.98385 12.085L1.61263 13.47L1.61358 13.472Z" fill="white"/>
</g>
</g>
<defs>
<clipPath id="clip0_2_1604">
<rect width="21" height="30" fill="white" transform="translate(0 0.5)"/>
</clipPath>
<clipPath id="clip1_2_1604">
<rect width="21" height="20" fill="white" transform="translate(0 5.5)"/>
</clipPath>
</defs>
</svg>
